<mxfile host="app.diagrams.net" agent="Mozilla/5.0 (Macintosh; Intel Mac OS X 10.15; rv:136.0) Gecko/20100101 Firefox/136.0" version="26.1.1">
  <diagram name="Page-1" id="FkYMHiEX-QmU4DtH_I90">
    <mxGraphModel dx="1023" dy="940" grid="1" gridSize="10" guides="1" tooltips="1" connect="1" arrows="1" fold="1" page="1" pageScale="1" pageWidth="827" pageHeight="1169" math="0" shadow="0">
      <root>
        <mxCell id="0" />
        <mxCell id="1" parent="0" />
        <mxCell id="W3xJn1Xx-U6qPgFoUqxs-18" value="" style="rounded=0;whiteSpace=wrap;html=1;" parent="1" vertex="1">
          <mxGeometry x="200" y="200" width="310" height="160" as="geometry" />
        </mxCell>
        <mxCell id="W3xJn1Xx-U6qPgFoUqxs-19" value="Worker Node" style="text;html=1;align=center;verticalAlign=middle;resizable=0;points=[];autosize=1;strokeColor=none;fillColor=none;fontSize=16;" parent="1" vertex="1">
          <mxGeometry x="390" y="330" width="120" height="30" as="geometry" />
        </mxCell>
        <mxCell id="W3xJn1Xx-U6qPgFoUqxs-24" value="Prometheus" style="rounded=1;whiteSpace=wrap;html=1;fillColor=#ffe6cc;strokeColor=#d79b00;" parent="1" vertex="1">
          <mxGeometry x="230" y="220" width="70" height="60" as="geometry" />
        </mxCell>
        <mxCell id="W3xJn1Xx-U6qPgFoUqxs-49" style="edgeStyle=none;curved=1;rounded=0;orthogonalLoop=1;jettySize=auto;html=1;entryX=1;entryY=0.5;entryDx=0;entryDy=0;fontSize=12;startSize=8;endSize=8;fillColor=#ffe6cc;strokeColor=#d79b00;" parent="1" source="W3xJn1Xx-U6qPgFoUqxs-25" target="W3xJn1Xx-U6qPgFoUqxs-24" edge="1">
          <mxGeometry relative="1" as="geometry" />
        </mxCell>
        <mxCell id="W3xJn1Xx-U6qPgFoUqxs-25" value="Grafana" style="rounded=1;whiteSpace=wrap;html=1;fillColor=#ffe6cc;strokeColor=#d79b00;" parent="1" vertex="1">
          <mxGeometry x="320" y="220" width="70" height="60" as="geometry" />
        </mxCell>
        <mxCell id="W3xJn1Xx-U6qPgFoUqxs-26" value="Traefik" style="rounded=1;whiteSpace=wrap;html=1;" parent="1" vertex="1">
          <mxGeometry x="410" y="220" width="70" height="60" as="geometry" />
        </mxCell>
        <mxCell id="W3xJn1Xx-U6qPgFoUqxs-27" value="" style="rounded=0;whiteSpace=wrap;html=1;" parent="1" vertex="1">
          <mxGeometry x="200" y="390" width="310" height="160" as="geometry" />
        </mxCell>
        <mxCell id="W3xJn1Xx-U6qPgFoUqxs-28" value="Worker Node" style="text;html=1;align=center;verticalAlign=middle;resizable=0;points=[];autosize=1;strokeColor=none;fillColor=none;fontSize=16;" parent="1" vertex="1">
          <mxGeometry x="390" y="520" width="120" height="30" as="geometry" />
        </mxCell>
        <mxCell id="W3xJn1Xx-U6qPgFoUqxs-34" value="" style="rounded=0;whiteSpace=wrap;html=1;" parent="1" vertex="1">
          <mxGeometry x="200" y="580" width="310" height="160" as="geometry" />
        </mxCell>
        <mxCell id="W3xJn1Xx-U6qPgFoUqxs-35" value="Worker Node" style="text;html=1;align=center;verticalAlign=middle;resizable=0;points=[];autosize=1;strokeColor=none;fillColor=none;fontSize=16;" parent="1" vertex="1">
          <mxGeometry x="390" y="710" width="120" height="30" as="geometry" />
        </mxCell>
        <mxCell id="W3xJn1Xx-U6qPgFoUqxs-41" value="" style="group" parent="1" vertex="1" connectable="0">
          <mxGeometry x="229" y="420" width="110" height="80" as="geometry" />
        </mxCell>
        <mxCell id="W3xJn1Xx-U6qPgFoUqxs-40" value="" style="rounded=1;whiteSpace=wrap;html=1;" parent="W3xJn1Xx-U6qPgFoUqxs-41" vertex="1">
          <mxGeometry x="15.714285714285714" width="94.28571428571428" height="60" as="geometry" />
        </mxCell>
        <mxCell id="W3xJn1Xx-U6qPgFoUqxs-39" value="" style="rounded=1;whiteSpace=wrap;html=1;" parent="W3xJn1Xx-U6qPgFoUqxs-41" vertex="1">
          <mxGeometry x="7.857142857142857" y="10" width="94.28571428571428" height="60" as="geometry" />
        </mxCell>
        <mxCell id="W3xJn1Xx-U6qPgFoUqxs-38" value="URL Shortener" style="rounded=1;whiteSpace=wrap;html=1;" parent="W3xJn1Xx-U6qPgFoUqxs-41" vertex="1">
          <mxGeometry y="20" width="94.28571428571428" height="60" as="geometry" />
        </mxCell>
        <mxCell id="W3xJn1Xx-U6qPgFoUqxs-42" value="PostgreSQL" style="rounded=1;whiteSpace=wrap;html=1;" parent="1" vertex="1">
          <mxGeometry x="390" y="420" width="70" height="60" as="geometry" />
        </mxCell>
        <mxCell id="W3xJn1Xx-U6qPgFoUqxs-43" style="edgeStyle=none;curved=1;rounded=0;orthogonalLoop=1;jettySize=auto;html=1;entryX=0;entryY=0.5;entryDx=0;entryDy=0;fontSize=12;startSize=8;endSize=8;" parent="1" source="W3xJn1Xx-U6qPgFoUqxs-40" target="W3xJn1Xx-U6qPgFoUqxs-42" edge="1">
          <mxGeometry relative="1" as="geometry" />
        </mxCell>
        <mxCell id="W3xJn1Xx-U6qPgFoUqxs-44" value="" style="group" parent="1" vertex="1" connectable="0">
          <mxGeometry x="229" y="610" width="110" height="80" as="geometry" />
        </mxCell>
        <mxCell id="W3xJn1Xx-U6qPgFoUqxs-45" value="" style="rounded=1;whiteSpace=wrap;html=1;fillColor=#d5e8d4;strokeColor=#82b366;" parent="W3xJn1Xx-U6qPgFoUqxs-44" vertex="1">
          <mxGeometry x="15.714285714285714" width="94.28571428571428" height="60" as="geometry" />
        </mxCell>
        <mxCell id="W3xJn1Xx-U6qPgFoUqxs-46" value="" style="rounded=1;whiteSpace=wrap;html=1;fillColor=#d5e8d4;strokeColor=#82b366;" parent="W3xJn1Xx-U6qPgFoUqxs-44" vertex="1">
          <mxGeometry x="7.857142857142857" y="10" width="94.28571428571428" height="60" as="geometry" />
        </mxCell>
        <mxCell id="W3xJn1Xx-U6qPgFoUqxs-47" value="URL Shortener&lt;br&gt;&lt;div&gt;Clients&lt;/div&gt;" style="rounded=1;whiteSpace=wrap;html=1;fillColor=#d5e8d4;strokeColor=#82b366;" parent="W3xJn1Xx-U6qPgFoUqxs-44" vertex="1">
          <mxGeometry y="20" width="94.28571428571428" height="60" as="geometry" />
        </mxCell>
        <mxCell id="W3xJn1Xx-U6qPgFoUqxs-50" style="edgeStyle=none;curved=1;rounded=0;orthogonalLoop=1;jettySize=auto;html=1;exitX=0.5;exitY=1;exitDx=0;exitDy=0;entryX=0.209;entryY=0.013;entryDx=0;entryDy=0;entryPerimeter=0;fontSize=12;startSize=8;endSize=8;fillColor=#ffe6cc;strokeColor=#d79b00;" parent="1" source="W3xJn1Xx-U6qPgFoUqxs-24" target="W3xJn1Xx-U6qPgFoUqxs-40" edge="1">
          <mxGeometry relative="1" as="geometry" />
        </mxCell>
        <mxCell id="W3xJn1Xx-U6qPgFoUqxs-51" style="edgeStyle=none;curved=0;rounded=0;orthogonalLoop=1;jettySize=auto;html=1;entryX=0.6;entryY=0.007;entryDx=0;entryDy=0;entryPerimeter=0;fontSize=12;startSize=8;endSize=8;fillColor=#d5e8d4;strokeColor=#82b366;" parent="1" source="W3xJn1Xx-U6qPgFoUqxs-26" target="W3xJn1Xx-U6qPgFoUqxs-40" edge="1">
          <mxGeometry relative="1" as="geometry">
            <Array as="points">
              <mxPoint x="445" y="310" />
              <mxPoint x="301" y="310" />
            </Array>
          </mxGeometry>
        </mxCell>
        <mxCell id="W3xJn1Xx-U6qPgFoUqxs-53" style="edgeStyle=none;curved=0;rounded=0;orthogonalLoop=1;jettySize=auto;html=1;fontSize=12;startSize=8;endSize=8;entryX=1;entryY=0.5;entryDx=0;entryDy=0;exitX=1;exitY=0.5;exitDx=0;exitDy=0;fillColor=#d5e8d4;strokeColor=#82b366;" parent="1" source="W3xJn1Xx-U6qPgFoUqxs-45" target="W3xJn1Xx-U6qPgFoUqxs-26" edge="1">
          <mxGeometry relative="1" as="geometry">
            <mxPoint x="590" y="410" as="targetPoint" />
            <Array as="points">
              <mxPoint x="540" y="640" />
              <mxPoint x="540" y="250" />
            </Array>
          </mxGeometry>
        </mxCell>
        <mxCell id="W3xJn1Xx-U6qPgFoUqxs-54" value="" style="rounded=0;whiteSpace=wrap;html=1;" parent="1" vertex="1">
          <mxGeometry x="920" y="400" width="680" height="240" as="geometry" />
        </mxCell>
        <mxCell id="W3xJn1Xx-U6qPgFoUqxs-55" value="Kubernetes Cluster" style="text;html=1;align=center;verticalAlign=middle;resizable=0;points=[];autosize=1;strokeColor=none;fillColor=none;fontSize=16;" parent="1" vertex="1">
          <mxGeometry x="1440" y="400" width="160" height="30" as="geometry" />
        </mxCell>
        <mxCell id="W3xJn1Xx-U6qPgFoUqxs-56" value="PostgreSQL" style="rounded=1;whiteSpace=wrap;html=1;" parent="1" vertex="1">
          <mxGeometry x="1500" y="480" width="80" height="60" as="geometry" />
        </mxCell>
        <mxCell id="W3xJn1Xx-U6qPgFoUqxs-58" style="edgeStyle=none;curved=1;rounded=0;orthogonalLoop=1;jettySize=auto;html=1;exitX=1;exitY=0.5;exitDx=0;exitDy=0;entryX=0;entryY=0.5;entryDx=0;entryDy=0;fontSize=12;startSize=8;endSize=8;" parent="1" source="W3xJn1Xx-U6qPgFoUqxs-57" target="W3xJn1Xx-U6qPgFoUqxs-56" edge="1">
          <mxGeometry relative="1" as="geometry" />
        </mxCell>
        <mxCell id="W3xJn1Xx-U6qPgFoUqxs-57" value="PgBouncer" style="rounded=1;whiteSpace=wrap;html=1;" parent="1" vertex="1">
          <mxGeometry x="1380" y="480" width="80" height="60" as="geometry" />
        </mxCell>
        <mxCell id="W3xJn1Xx-U6qPgFoUqxs-59" value="" style="group" parent="1" vertex="1" connectable="0">
          <mxGeometry x="1225" y="470" width="110" height="80" as="geometry" />
        </mxCell>
        <mxCell id="W3xJn1Xx-U6qPgFoUqxs-60" value="" style="rounded=1;whiteSpace=wrap;html=1;" parent="W3xJn1Xx-U6qPgFoUqxs-59" vertex="1">
          <mxGeometry x="15.714285714285714" width="94.28571428571428" height="60" as="geometry" />
        </mxCell>
        <mxCell id="W3xJn1Xx-U6qPgFoUqxs-61" value="" style="rounded=1;whiteSpace=wrap;html=1;" parent="W3xJn1Xx-U6qPgFoUqxs-59" vertex="1">
          <mxGeometry x="7.857142857142857" y="10" width="94.28571428571428" height="60" as="geometry" />
        </mxCell>
        <mxCell id="W3xJn1Xx-U6qPgFoUqxs-62" value="URL Shortener" style="rounded=1;whiteSpace=wrap;html=1;" parent="W3xJn1Xx-U6qPgFoUqxs-59" vertex="1">
          <mxGeometry y="20" width="94.28571428571428" height="60" as="geometry" />
        </mxCell>
        <mxCell id="W3xJn1Xx-U6qPgFoUqxs-63" style="edgeStyle=none;curved=1;rounded=0;orthogonalLoop=1;jettySize=auto;html=1;entryX=0;entryY=0.5;entryDx=0;entryDy=0;fontSize=12;startSize=8;endSize=8;exitX=1.011;exitY=0.66;exitDx=0;exitDy=0;exitPerimeter=0;" parent="1" source="W3xJn1Xx-U6qPgFoUqxs-60" target="W3xJn1Xx-U6qPgFoUqxs-57" edge="1">
          <mxGeometry relative="1" as="geometry" />
        </mxCell>
        <mxCell id="W3xJn1Xx-U6qPgFoUqxs-65" style="edgeStyle=none;curved=0;rounded=0;orthogonalLoop=1;jettySize=auto;html=1;entryX=0;entryY=0.387;entryDx=0;entryDy=0;fontSize=12;startSize=8;endSize=8;exitX=0.5;exitY=1;exitDx=0;exitDy=0;entryPerimeter=0;" parent="1" source="W3xJn1Xx-U6qPgFoUqxs-64" target="W3xJn1Xx-U6qPgFoUqxs-62" edge="1">
          <mxGeometry relative="1" as="geometry">
            <Array as="points">
              <mxPoint x="1090" y="510" />
            </Array>
          </mxGeometry>
        </mxCell>
        <mxCell id="W3xJn1Xx-U6qPgFoUqxs-64" value="Ingress Controller" style="rounded=0;whiteSpace=wrap;html=1;" parent="1" vertex="1">
          <mxGeometry x="1030" y="380" width="120" height="60" as="geometry" />
        </mxCell>
        <mxCell id="W3xJn1Xx-U6qPgFoUqxs-67" style="edgeStyle=none;curved=0;rounded=0;orthogonalLoop=1;jettySize=auto;html=1;entryX=0.75;entryY=0;entryDx=0;entryDy=0;fontSize=12;startSize=8;endSize=8;" parent="1" source="W3xJn1Xx-U6qPgFoUqxs-66" target="W3xJn1Xx-U6qPgFoUqxs-64" edge="1">
          <mxGeometry relative="1" as="geometry">
            <Array as="points">
              <mxPoint x="1120" y="320" />
            </Array>
          </mxGeometry>
        </mxCell>
        <mxCell id="W3xJn1Xx-U6qPgFoUqxs-69" value="POST /shorten" style="edgeLabel;html=1;align=center;verticalAlign=middle;resizable=0;points=[];fontSize=12;" parent="W3xJn1Xx-U6qPgFoUqxs-67" vertex="1" connectable="0">
          <mxGeometry x="-0.3176" y="1" relative="1" as="geometry">
            <mxPoint x="-19" y="1" as="offset" />
          </mxGeometry>
        </mxCell>
        <mxCell id="W3xJn1Xx-U6qPgFoUqxs-68" style="edgeStyle=none;curved=0;rounded=0;orthogonalLoop=1;jettySize=auto;html=1;fontSize=12;startSize=8;endSize=8;" parent="1" edge="1">
          <mxGeometry relative="1" as="geometry">
            <mxPoint x="950" y="339.19999999999993" as="sourcePoint" />
            <mxPoint x="1060" y="380" as="targetPoint" />
            <Array as="points">
              <mxPoint x="1060" y="340" />
            </Array>
          </mxGeometry>
        </mxCell>
        <mxCell id="W3xJn1Xx-U6qPgFoUqxs-70" value="GET /r/{id}" style="edgeLabel;html=1;align=center;verticalAlign=middle;resizable=0;points=[];fontSize=12;" parent="W3xJn1Xx-U6qPgFoUqxs-68" vertex="1" connectable="0">
          <mxGeometry x="-0.4364" relative="1" as="geometry">
            <mxPoint x="7" as="offset" />
          </mxGeometry>
        </mxCell>
        <mxCell id="W3xJn1Xx-U6qPgFoUqxs-66" value="Client" style="shape=umlActor;verticalLabelPosition=bottom;verticalAlign=top;html=1;outlineConnect=0;" parent="1" vertex="1">
          <mxGeometry x="920" y="290" width="30" height="60" as="geometry" />
        </mxCell>
        <mxCell id="W3xJn1Xx-U6qPgFoUqxs-72" style="edgeStyle=none;curved=0;rounded=0;orthogonalLoop=1;jettySize=auto;html=1;entryX=0;entryY=0.75;entryDx=0;entryDy=0;fontSize=12;startSize=8;endSize=8;exitX=1;exitY=0.5;exitDx=0;exitDy=0;" parent="1" source="W3xJn1Xx-U6qPgFoUqxs-71" target="W3xJn1Xx-U6qPgFoUqxs-62" edge="1">
          <mxGeometry relative="1" as="geometry">
            <Array as="points">
              <mxPoint x="1200" y="585" />
              <mxPoint x="1200" y="535" />
            </Array>
          </mxGeometry>
        </mxCell>
        <mxCell id="W3xJn1Xx-U6qPgFoUqxs-73" value="GET /metrics" style="edgeLabel;html=1;align=center;verticalAlign=middle;resizable=0;points=[];fontSize=12;" parent="W3xJn1Xx-U6qPgFoUqxs-72" vertex="1" connectable="0">
          <mxGeometry x="0.0328" relative="1" as="geometry">
            <mxPoint y="-5" as="offset" />
          </mxGeometry>
        </mxCell>
        <mxCell id="W3xJn1Xx-U6qPgFoUqxs-71" value="Prometheus" style="rounded=1;whiteSpace=wrap;html=1;" parent="1" vertex="1">
          <mxGeometry x="1060" y="555" width="80" height="60" as="geometry" />
        </mxCell>
        <mxCell id="W3xJn1Xx-U6qPgFoUqxs-75" style="edgeStyle=none;curved=1;rounded=0;orthogonalLoop=1;jettySize=auto;html=1;entryX=0;entryY=0.5;entryDx=0;entryDy=0;fontSize=12;startSize=8;endSize=8;" parent="1" source="W3xJn1Xx-U6qPgFoUqxs-74" target="W3xJn1Xx-U6qPgFoUqxs-71" edge="1">
          <mxGeometry relative="1" as="geometry" />
        </mxCell>
        <mxCell id="W3xJn1Xx-U6qPgFoUqxs-74" value="Grafana" style="rounded=1;whiteSpace=wrap;html=1;" parent="1" vertex="1">
          <mxGeometry x="940" y="555" width="80" height="60" as="geometry" />
        </mxCell>
      </root>
    </mxGraphModel>
  </diagram>
</mxfile>
